<svg aria-hidden="true" focusable="false" data-icon="expand" class="svg-inline" role="img" viewBox="0 0 448 512" fill="currentColor" xmlns="http://www.w3.org/2000/svg">
<path fill-rule="evenodd" clip-rule="evenodd" d="M29 192C45.5685 192 59 178.569 59 162V130.621L184.542 255.775L59 380.929V350C59 333.431 45.5685 320 29 320C12.4315 320 -1 333.431 -1 350V447C-1 465.225 13.7746 480 32 480H130C146.569 480 160 466.569 160 450C160 433.431 146.569 420 130 420H98.9567L224.116 295.227L349.276 420H317C300.431 420 287 433.431 287 450C287 466.569 300.431 480 317 480H415C433.225 480 448 465.225 448 447V350C448 333.431 434.569 320 418 320C401.431 320 388 333.431 388 350V379.7L263.691 255.775L388 131.849V162C388 178.569 401.431 192 418 192C434.569 192 448 178.569 448 162V65C448 46.7746 433.225 32 415 32H317C300.431 32 287 45.4315 287 62C287 78.5685 300.431 92 317 92H348.823L224.116 216.322L99.4088 92H130C146.569 92 160 78.5685 160 62C160 45.4315 146.569 32 130 32H32C13.7746 32 -1 46.7746 -1 65V162C-1 178.569 12.4315 192 29 192Z"/>
</svg>
